Coordinates
version=1
nRows=13
nColumns=63
inDegrees=yes

Units are S.I. units (second, meters, Newtons, ...)
If the header above contains a line with 'inDegrees', this indicates whether rotational values are in degrees (yes) or radians (no).

endheader
time	pelvis_tilt	pelvis_list	pelvis_rotation	pelvis_tx	pelvis_ty	pelvis_tz	hip_flexion_r	hip_adduction_r	hip_rotation_r	knee_angle_r	knee_angle_r_beta	ankle_angle_r	subtalar_angle_r	mtp_angle_r	hip_flexion_l	hip_adduction_l	hip_rotation_l	knee_angle_l	knee_angle_l_beta	ankle_angle_l	subtalar_angle_l	mtp_angle_l	L5_S1_Flex_Ext	L5_S1_Lat_Bending	L5_S1_axial_rotation	L4_L5_Flex_Ext	L4_L5_Lat_Bending	L4_L5_axial_rotation	L3_L4_Flex_Ext	L3_L4_Lat_Bending	L3_L4_axial_rotation	L2_L3_Flex_Ext	L2_L3_Lat_Bending	L2_L3_axial_rotation	L1_L2_Flex_Ext	L1_L2_Lat_Bending	L1_L2_axial_rotation	L1_T12_Flex_Ext	L1_T12_Lat_Bending	L1_T12_axial_rotation	Abs_r3	Abs_r2	Abs_r1	Abs_t1	Abs_t2	neck_flexion	neck_bending	neck_rotation	arm_flex_r	arm_add_r	arm_rot_r	elbow_flex_r	pro_sup_r	wrist_flex_r	wrist_dev_r	arm_flex_l	arm_add_l	arm_rot_l	elbow_flex_l	pro_sup_l	wrist_flex_l	wrist_dev_l
0.000000	0.433072	-1.694384	83.195079	0.264842	0.920744	0.570482	-1.050587	-1.460492	-2.308441	9.404429	0.164138	37.198109	12.029545	0.000000	-3.804959	1.697834	9.067518	3.368753	0.058796	34.068831	-15.651030	0.000000	0.286150	0.181032	1.073144	0.531409	0.240773	1.140215	0.470116	0.440162	1.140215	0.327041	0.440162	0.939001	0.265719	0.369161	0.871929	0.163506	0.280419	0.804858	2.043941	2.047874	5.968504	0.000000	0.000000	23.902098	-1.302247	-10.193602	7.772953	-5.158304	57.739393	28.535369	51.798129	4.031465	5.415455	14.617370	-2.981918	77.549631	31.012099	52.607928	1.950431	-7.762120
0.017241	0.406810	-1.729927	83.414296	0.264483	0.920854	0.570474	-1.477880	-1.407993	-1.243428	8.362954	0.145961	36.471249	10.626006	0.000000	-3.686711	1.699019	9.889495	3.267348	0.057026	34.236777	-15.654916	0.000000	0.294700	0.173668	0.991220	0.547287	0.230978	1.053171	0.484162	0.422256	1.053171	0.336812	0.422256	0.867318	0.273658	0.354144	0.805366	0.168391	0.269012	0.743415	2.105011	1.964567	5.512869	0.000000	0.000000	23.855175	-1.192037	-10.405418	8.462008	-5.324625	60.556925	28.486382	47.856876	4.114737	4.768203	14.510806	-3.069081	76.402753	31.317210	54.235768	2.589562	-6.275382
0.034483	0.371001	-1.756677	83.579892	0.264205	0.920925	0.570495	-1.806357	-1.389749	-0.419772	7.551293	0.131795	35.943994	9.578504	0.000000	-3.590950	1.716805	10.561147	3.179331	0.055490	34.375621	-15.669713	0.000000	0.300257	0.165614	0.934557	0.557607	0.220267	0.992967	0.493292	0.402674	0.992967	0.343164	0.402674	0.817737	0.278819	0.337720	0.759327	0.171567	0.256536	0.700918	2.144705	1.873458	5.197724	0.000000	0.000000	23.833055	-1.134019	-10.669854	9.008065	-5.453055	62.728479	28.441184	44.793546	4.177551	4.194502	14.459457	-3.124990	75.417209	31.558384	55.630047	3.202871	-4.939757
0.051724	0.327667	-1.774886	83.697506	0.264001	0.920961	0.570541	-2.045473	-1.401359	0.182361	6.949067	0.121284	35.597991	8.854767	0.000000	-3.516326	1.748406	11.095612	3.104128	0.054177	34.487673	-15.694228	0.000000	0.303162	0.157028	0.900591	0.563002	0.208847	0.956878	0.498065	0.381797	0.956878	0.346484	0.381797	0.788017	0.281516	0.320211	0.731730	0.173227	0.243236	0.675443	2.165457	1.776328	5.008816	0.000000	0.000000	23.829813	-1.123182	-10.983419	9.424532	-5.547012	64.320238	28.398530	42.514849	4.221743	3.692359	14.457804	-3.152544	74.589686	31.740438	56.798649	3.783444	-3.751021
0.068966	0.278831	-1.784804	83.772782	0.263863	0.920968	0.570610	-2.204682	-1.438424	0.582806	6.535895	0.114073	35.414888	8.422518	0.000000	-3.461486	1.791038	11.506031	3.041164	0.053078	34.575243	-15.727267	0.000000	0.303757	0.148067	0.886760	0.564107	0.196928	0.942182	0.499042	0.360009	0.942182	0.347164	0.360009	0.775915	0.282068	0.301937	0.720492	0.173567	0.229355	0.665070	2.169704	1.674958	4.931892	0.000000	0.000000	23.839523	-1.154515	-11.342620	9.724814	-5.609912	65.398382	28.357175	40.927493	4.249149	3.259785	14.500326	-3.154643	73.916869	31.868186	57.749460	4.324364	-2.704952
0.086207	0.226517	-1.786681	83.811359	0.263784	0.920951	0.570699	-2.293440	-1.496546	0.801400	6.291400	0.109806	35.376334	8.249483	0.000000	-3.425082	1.841916	11.805545	2.989862	0.052183	34.640639	-15.767637	0.000000	0.302382	0.138888	0.890501	0.561553	0.184721	0.946157	0.496783	0.337693	0.946157	0.345592	0.337693	0.779188	0.280791	0.283221	0.723532	0.172781	0.215138	0.667876	2.159881	1.571130	4.952699	0.000000	0.000000	23.856259	-1.223009	-11.743964	9.922318	-5.645173	66.029095	28.315873	39.938188	4.261602	2.894786	14.581505	-3.134185	73.395444	31.946443	58.490363	4.818718	-1.797327
0.103448	0.172747	-1.780767	83.818881	0.263756	0.920916	0.570804	-2.321201	-1.571324	0.857978	6.195201	0.108127	35.463975	8.303388	0.000000	-3.405762	1.898253	12.007293	2.949647	0.051481	34.686172	-15.814143	0.000000	0.299378	0.129650	0.909251	0.555974	0.172434	0.966080	0.491847	0.315231	0.966080	0.342159	0.315231	0.795595	0.278002	0.264382	0.738767	0.171064	0.200828	0.681939	2.138424	1.466626	5.056984	0.000000	0.000000	23.874095	-1.323653	-12.183960	10.030452	-5.656214	66.278558	28.273381	39.453642	4.260939	2.595372	14.695820	-3.094070	73.022097	31.980026	59.029244	5.259590	-1.023921
0.120690	0.119544	-1.767312	83.800988	0.263774	0.920867	0.570922	-2.297419	-1.658358	0.772375	6.226918	0.108680	35.659460	8.551958	0.000000	-3.402176	1.957264	12.124415	2.919944	0.050963	34.714148	-15.865593	0.000000	0.295086	0.120509	0.940448	0.548004	0.160278	0.999227	0.484797	0.293007	0.999227	0.337254	0.293007	0.822892	0.274017	0.245743	0.764114	0.168612	0.186669	0.705336	2.107769	1.363227	5.230492	0.000000	0.000000	23.887107	-1.451435	-12.659114	10.062621	-5.646453	66.212954	28.228451	39.380564	4.248993	2.359550	14.837751	-3.037196	72.793513	31.973750	59.373989	5.640066	-0.380513
0.137931	0.068931	-1.746567	83.763322	0.263829	0.920811	0.571050	-2.231549	-1.753250	0.564427	6.366173	0.111111	35.944436	8.962919	0.000000	-3.412973	2.016164	12.170052	2.900176	0.050618	34.726879	-15.920792	0.000000	0.289848	0.111624	0.981529	0.538276	0.148460	1.042875	0.476191	0.271403	1.042875	0.331267	0.271403	0.858838	0.269152	0.227624	0.797493	0.165619	0.172906	0.736147	2.070352	1.262715	5.458972	0.000000	0.000000	23.889367	-1.601347	-13.165934	10.032234	-5.619306	65.898465	28.179840	39.625663	4.227602	2.185331	15.001779	-2.966463	72.706379	31.932431	59.532481	5.953232	0.137121
0.155172	0.022930	-1.718782	83.711525	0.263915	0.920752	0.571186	-2.133046	-1.851600	0.253969	6.592586	0.115062	36.300552	9.503995	0.000000	-3.436804	2.072167	12.157343	2.889769	0.050436	34.726674	-15.978548	0.000000	0.284003	0.103152	1.029932	0.527423	0.137192	1.094302	0.466589	0.250803	1.094302	0.324588	0.250803	0.901190	0.263726	0.210347	0.836819	0.162280	0.159782	0.772449	2.028608	1.166871	5.728170	0.000000	0.000000	23.874951	-1.768377	-13.700928	9.952697	-5.578191	65.401273	28.126301	40.095648	4.198599	2.070721	15.182383	-2.884770	72.757379	31.860883	59.512607	6.192171	0.533205
0.172414	-0.016435	-1.684208	83.651237	0.264024	0.920695	0.571327	-2.011366	-1.949008	-0.139165	6.885778	0.120179	36.709456	10.142914	0.000000	-3.472317	2.122489	12.099428	2.888146	0.050408	34.715840	-16.037666	0.000000	0.277895	0.095249	1.083092	0.516078	0.126681	1.150785	0.456553	0.231589	1.150785	0.317606	0.231589	0.947706	0.258053	0.194232	0.880012	0.158789	0.147541	0.812319	1.984974	1.077477	6.023833	0.000000	0.000000	23.837932	-1.947514	-14.260602	9.837416	-5.526528	64.787560	28.066590	40.697228	4.163819	2.013730	15.374043	-2.795015	72.943200	31.763923	59.322251	6.349970	0.811961
0.189655	-0.007652	-1.641941	83.584058	0.264090	0.920657	0.571434	-1.883674	-1.999850	-0.518869	7.203113	0.125718	37.109168	10.741325	0.000000	-3.527060	2.127163	11.975206	2.897996	0.050580	34.681475	-16.088552	0.000000	0.272952	0.093887	1.130408	0.506899	0.124870	1.201059	0.448432	0.228277	1.201059	0.311956	0.228277	0.989107	0.253463	0.191455	0.918457	0.155965	0.145431	0.847806	1.949667	1.062070	6.286992	0.000000	0.000000	23.738978	-2.220776	-14.938750	9.726824	-5.488080	64.306217	27.984489	41.082652	4.113706	2.028888	15.539784	-2.696145	73.172415	31.679691	58.960649	6.379702	0.934026
0.206897	0.006050	-1.594745	83.523007	0.264205	0.920647	0.571521	-1.753332	-2.047085	-0.990945	7.531875	0.131456	37.558588	11.440090	0.000000	-3.589155	2.122535	11.851546	2.908410	0.050761	34.673361	-16.115456	0.000000	0.269615	0.091393	1.181304	0.500702	0.121553	1.255135	0.442950	0.222214	1.255135	0.308143	0.222214	1.033641	0.250364	0.186369	0.959809	0.154058	0.141568	0.885978	1.925833	1.033859	6.570058	0.000000	0.000000	23.596585	-2.430242	-15.611873	9.564942	-5.431334	63.654414	27.901409	41.665807	4.082455	2.166209	15.707926	-2.594376	73.652664	31.557632	58.361585	6.271296	0.955359
